<?xml version="1.0" encoding="UTF-8"?>
<svg xmlns="http://www.w3.org/2000/svg" xmlns:xlink="http://www.w3.org/1999/xlink" width="3000" height="2000" viewBox="0 0 3000 2000">
<defs>
<clipPath id="clip-0">
<path clip-rule="nonzero" d="M 3000 2000 L 0 2000 L 0 0 L 3000 0 L 3000 2000 M 349.796875 1670.679688 C 314.492188 1679.21875 295.476562 1688.300781 295.476562 1697.71875 C 295.476562 1747.871094 834.761719 1788.53125 1500 1788.53125 C 2165.238281 1788.53125 2704.519531 1747.871094 2704.519531 1697.71875 C 2704.519531 1682.800781 2656.839844 1668.730469 2572.300781 1656.308594 C 2658.960938 1608.078125 2715.011719 1531.351562 2715.011719 1444.921875 C 2715.011719 1298.929688 2555.101562 1180.589844 2357.851562 1180.589844 L 1732.578125 1180.589844 C 1803.449219 1180.589844 1860.890625 1138.070312 1860.890625 1085.628906 C 1860.890625 1033.179688 1803.449219 990.671875 1732.578125 990.671875 L 1807.101562 990.671875 C 1818.78125 1004.941406 1831.730469 1018.011719 1845.769531 1029.691406 C 1868.691406 1048.75 1881.949219 1078.089844 1881.488281 1109.078125 L 1880.839844 1152.480469 L 2044.121094 1154.921875 L 2044.121094 1154.949219 L 2049.410156 1154.988281 L 2146.929688 1156.449219 L 2147.621094 1110.28125 C 2148.078125 1079.699219 2161.839844 1051.078125 2184.820312 1032.679688 C 2200.308594 1020.269531 2214.550781 1006.179688 2227.308594 990.671875 L 2436.441406 990.671875 C 2590.289062 990.671875 2715.011719 898.359375 2715.011719 784.5 C 2715.011719 670.640625 2590.289062 578.328125 2436.441406 578.328125 L 2378.328125 578.328125 C 2405.511719 560.921875 2422.730469 535.21875 2422.730469 506.53125 C 2422.730469 454.078125 2365.28125 411.570312 2294.421875 411.570312 L 2101.011719 411.570312 C 2120.570312 399.109375 2133.011719 380.691406 2133.011719 360.089844 C 2133.011719 322.558594 2091.898438 292.140625 2041.199219 292.140625 L 1555.570312 292.140625 C 1504.859375 292.140625 1463.761719 322.558594 1463.761719 360.089844 C 1463.761719 397.609375 1504.859375 428.039062 1555.570312 428.039062 L 1737.398438 428.039062 C 1771.261719 445.128906 1793.488281 473.910156 1793.488281 506.53125 C 1793.488281 535.21875 1776.28125 560.921875 1749.101562 578.328125 L 1450.050781 578.328125 C 1358.269531 578.328125 1276.859375 611.179688 1226.101562 661.859375 L 1159.621094 643.890625 L 700.699219 748.75 L 947.636719 823.171875 C 947.636719 858.058594 947.636719 892.949219 947.636719 927.839844 C 947.636719 929.421875 947.636719 931 947.636719 932.578125 L 813.792969 932.578125 C 772.953125 932.578125 739.851562 963.511719 739.851562 1001.648438 L 739.851562 1002.078125 C 739.851562 1036.199219 766.339844 1064.539062 801.164062 1070.140625 L 711.796875 1070.140625 C 663.429688 1070.140625 624.222656 1106.761719 624.222656 1151.941406 L 624.222656 1152.449219 C 624.222656 1188.648438 649.402344 1219.359375 684.292969 1230.128906 C 609.871094 1269.730469 556.886719 1330.011719 540.632812 1399.601562 L 484.105469 1399.601562 C 374.140625 1399.601562 284.992188 1465.570312 284.992188 1546.960938 L 284.992188 1561.890625 C 284.992188 1604.96875 309.972656 1643.730469 349.796875 1670.679688 "/>
</clipPath>
<clipPath id="clip-1">
<path clip-rule="nonzero" d="M 3000 2000 L 0 2000 L 0 0 L 3000 0 L 3000 2000 M 349.796875 1670.679688 C 314.492188 1679.21875 295.476562 1688.300781 295.476562 1697.71875 C 295.476562 1747.871094 834.761719 1788.53125 1500 1788.53125 C 2165.238281 1788.53125 2704.519531 1747.871094 2704.519531 1697.71875 C 2704.519531 1682.800781 2656.839844 1668.730469 2572.300781 1656.308594 C 2658.960938 1608.078125 2715.011719 1531.351562 2715.011719 1444.921875 C 2715.011719 1298.929688 2555.101562 1180.589844 2357.851562 1180.589844 L 1732.578125 1180.589844 C 1803.449219 1180.589844 1860.890625 1138.070312 1860.890625 1085.628906 C 1860.890625 1033.179688 1803.449219 990.671875 1732.578125 990.671875 L 1807.101562 990.671875 C 1818.78125 1004.941406 1831.730469 1018.011719 1845.769531 1029.691406 C 1868.691406 1048.75 1881.949219 1078.089844 1881.488281 1109.078125 L 1880.839844 1152.480469 L 2044.121094 1154.921875 L 2044.121094 1154.949219 L 2049.410156 1154.988281 L 2146.929688 1156.449219 L 2147.621094 1110.28125 C 2148.078125 1079.699219 2161.839844 1051.078125 2184.820312 1032.679688 C 2200.308594 1020.269531 2214.550781 1006.179688 2227.308594 990.671875 L 2436.441406 990.671875 C 2590.289062 990.671875 2715.011719 898.359375 2715.011719 784.5 C 2715.011719 670.640625 2590.289062 578.328125 2436.441406 578.328125 L 2378.328125 578.328125 C 2405.511719 560.921875 2422.730469 535.21875 2422.730469 506.53125 C 2422.730469 454.078125 2365.28125 411.570312 2294.421875 411.570312 L 2101.011719 411.570312 C 2120.570312 399.109375 2133.011719 380.691406 2133.011719 360.089844 C 2133.011719 322.558594 2091.898438 292.140625 2041.199219 292.140625 L 1555.570312 292.140625 C 1504.859375 292.140625 1463.761719 322.558594 1463.761719 360.089844 C 1463.761719 397.609375 1504.859375 428.039062 1555.570312 428.039062 L 1737.398438 428.039062 C 1771.261719 445.128906 1793.488281 473.910156 1793.488281 506.53125 C 1793.488281 535.21875 1776.28125 560.921875 1749.101562 578.328125 L 1450.050781 578.328125 C 1358.269531 578.328125 1276.859375 611.179688 1226.101562 661.859375 L 1159.621094 643.890625 L 700.699219 748.75 L 947.636719 823.171875 C 947.636719 858.058594 947.636719 892.949219 947.636719 927.839844 C 947.636719 929.421875 947.636719 931 947.636719 932.578125 L 813.792969 932.578125 C 772.953125 932.578125 739.851562 963.511719 739.851562 1001.648438 L 739.851562 1002.078125 C 739.851562 1036.199219 766.339844 1064.539062 801.164062 1070.140625 L 711.796875 1070.140625 C 663.429688 1070.140625 624.222656 1106.761719 624.222656 1151.941406 L 624.222656 1152.449219 C 624.222656 1188.648438 649.402344 1219.359375 684.292969 1230.128906 C 609.871094 1269.730469 556.886719 1330.011719 540.632812 1399.601562 L 484.105469 1399.601562 C 374.140625 1399.601562 284.992188 1465.570312 284.992188 1546.960938 L 284.992188 1561.890625 C 284.992188 1604.96875 309.972656 1643.730469 349.796875 1670.679688 "/>
</clipPath>
<linearGradient id="linear-pattern-0" gradientUnits="userSpaceOnUse" x1="-0.000000000000000114" y1="0" x2="1" y2="0" gradientTransform="matrix(0, 2000, -2000, 0, 1500, 0.000000000000222045)">
<stop offset="0" stop-color="rgb(99.215698%, 99.215698%, 99.215698%)" stop-opacity="1"/>
<stop offset="0.03125" stop-color="rgb(99.107361%, 99.189758%, 99.217224%)" stop-opacity="1"/>
<stop offset="0.0625" stop-color="rgb(98.820496%, 99.12262%, 99.224854%)" stop-opacity="1"/>
<stop offset="0.078125" stop-color="rgb(98.535156%, 99.057007%, 99.234009%)" stop-opacity="1"/>
<stop offset="0.09375" stop-color="rgb(98.313904%, 99.005127%, 99.240112%)" stop-opacity="1"/>
<stop offset="0.109375" stop-color="rgb(98.075867%, 98.948669%, 99.246216%)" stop-opacity="1"/>
<stop offset="0.125" stop-color="rgb(97.821045%, 98.890686%, 99.252319%)" stop-opacity="1"/>
<stop offset="0.140625" stop-color="rgb(97.55249%, 98.828125%, 99.259949%)" stop-opacity="1"/>
<stop offset="0.15625" stop-color="rgb(97.270203%, 98.762512%, 99.267578%)" stop-opacity="1"/>
<stop offset="0.171875" stop-color="rgb(96.975708%, 98.693848%, 99.275208%)" stop-opacity="1"/>
<stop offset="0.1875" stop-color="rgb(96.670532%, 98.622131%, 99.284363%)" stop-opacity="1"/>
<stop offset="0.203125" stop-color="rgb(96.353149%, 98.547363%, 99.293518%)" stop-opacity="1"/>
<stop offset="0.21875" stop-color="rgb(96.025085%, 98.471069%, 99.302673%)" stop-opacity="1"/>
<stop offset="0.234375" stop-color="rgb(95.68634%, 98.39325%, 99.311829%)" stop-opacity="1"/>
<stop offset="0.25" stop-color="rgb(95.33844%, 98.312378%, 99.320984%)" stop-opacity="1"/>
<stop offset="0.265625" stop-color="rgb(94.981384%, 98.228455%, 99.330139%)" stop-opacity="1"/>
<stop offset="0.28125" stop-color="rgb(94.615173%, 98.143005%, 99.34082%)" stop-opacity="1"/>
<stop offset="0.296875" stop-color="rgb(94.241333%, 98.05603%, 99.349976%)" stop-opacity="1"/>
<stop offset="0.3125" stop-color="rgb(93.858337%, 97.967529%, 99.360657%)" stop-opacity="1"/>
<stop offset="0.320312" stop-color="rgb(93.565369%, 97.898865%, 99.369812%)" stop-opacity="1"/>
<stop offset="0.328125" stop-color="rgb(93.36853%, 97.853088%, 99.37439%)" stop-opacity="1"/>
<stop offset="0.335938" stop-color="rgb(93.16864%, 97.805786%, 99.380493%)" stop-opacity="1"/>
<stop offset="0.34375" stop-color="rgb(92.967224%, 97.76001%, 99.385071%)" stop-opacity="1"/>
<stop offset="0.351562" stop-color="rgb(92.764282%, 97.712708%, 99.391174%)" stop-opacity="1"/>
<stop offset="0.359375" stop-color="rgb(92.558289%, 97.663879%, 99.397278%)" stop-opacity="1"/>
<stop offset="0.367188" stop-color="rgb(92.350769%, 97.616577%, 99.403381%)" stop-opacity="1"/>
<stop offset="0.375" stop-color="rgb(92.141724%, 97.567749%, 99.407959%)" stop-opacity="1"/>
<stop offset="0.382812" stop-color="rgb(91.929626%, 97.518921%, 99.414062%)" stop-opacity="1"/>
<stop offset="0.390625" stop-color="rgb(91.717529%, 97.468567%, 99.420166%)" stop-opacity="1"/>
<stop offset="0.398438" stop-color="rgb(91.503906%, 97.418213%, 99.42627%)" stop-opacity="1"/>
<stop offset="0.40625" stop-color="rgb(91.287231%, 97.367859%, 99.432373%)" stop-opacity="1"/>
<stop offset="0.414062" stop-color="rgb(91.069031%, 97.317505%, 99.438477%)" stop-opacity="1"/>
<stop offset="0.421875" stop-color="rgb(90.849304%, 97.267151%, 99.44458%)" stop-opacity="1"/>
<stop offset="0.429688" stop-color="rgb(90.628052%, 97.215271%, 99.450684%)" stop-opacity="1"/>
<stop offset="0.4375" stop-color="rgb(90.405273%, 97.163391%, 99.456787%)" stop-opacity="1"/>
<stop offset="0.445312" stop-color="rgb(90.180969%, 97.111511%, 99.462891%)" stop-opacity="1"/>
<stop offset="0.453125" stop-color="rgb(89.953613%, 97.058105%, 99.468994%)" stop-opacity="1"/>
<stop offset="0.460938" stop-color="rgb(89.726257%, 97.0047%, 99.475098%)" stop-opacity="1"/>
<stop offset="0.46875" stop-color="rgb(89.49585%, 96.951294%, 99.481201%)" stop-opacity="1"/>
<stop offset="0.476562" stop-color="rgb(89.265442%, 96.897888%, 99.487305%)" stop-opacity="1"/>
<stop offset="0.484375" stop-color="rgb(89.031982%, 96.842957%, 99.493408%)" stop-opacity="1"/>
<stop offset="0.492188" stop-color="rgb(88.798523%, 96.789551%, 99.499512%)" stop-opacity="1"/>
<stop offset="0.5" stop-color="rgb(88.562012%, 96.734619%, 99.507141%)" stop-opacity="1"/>
<stop offset="0.507812" stop-color="rgb(88.3255%, 96.678162%, 99.513245%)" stop-opacity="1"/>
<stop offset="0.515625" stop-color="rgb(88.085938%, 96.62323%, 99.519348%)" stop-opacity="1"/>
<stop offset="0.523438" stop-color="rgb(87.846375%, 96.566772%, 99.525452%)" stop-opacity="1"/>
<stop offset="0.53125" stop-color="rgb(87.60376%, 96.510315%, 99.533081%)" stop-opacity="1"/>
<stop offset="0.539062" stop-color="rgb(87.361145%, 96.453857%, 99.539185%)" stop-opacity="1"/>
<stop offset="0.546875" stop-color="rgb(87.115479%, 96.3974%, 99.546814%)" stop-opacity="1"/>
<stop offset="0.554688" stop-color="rgb(86.869812%, 96.339417%, 99.552917%)" stop-opacity="1"/>
<stop offset="0.5625" stop-color="rgb(86.62262%, 96.282959%, 99.559021%)" stop-opacity="1"/>
<stop offset="0.570312" stop-color="rgb(86.373901%, 96.224976%, 99.56665%)" stop-opacity="1"/>
<stop offset="0.578125" stop-color="rgb(86.122131%, 96.165466%, 99.572754%)" stop-opacity="1"/>
<stop offset="0.585938" stop-color="rgb(85.870361%, 96.107483%, 99.580383%)" stop-opacity="1"/>
<stop offset="0.59375" stop-color="rgb(85.617065%, 96.047974%, 99.586487%)" stop-opacity="1"/>
<stop offset="0.601562" stop-color="rgb(85.362244%, 95.988464%, 99.594116%)" stop-opacity="1"/>
<stop offset="0.609375" stop-color="rgb(85.107422%, 95.928955%, 99.60022%)" stop-opacity="1"/>
<stop offset="0.617188" stop-color="rgb(84.849548%, 95.869446%, 99.607849%)" stop-opacity="1"/>
<stop offset="0.625" stop-color="rgb(84.591675%, 95.808411%, 99.615479%)" stop-opacity="1"/>
<stop offset="0.632812" stop-color="rgb(84.33075%, 95.748901%, 99.621582%)" stop-opacity="1"/>
<stop offset="0.640625" stop-color="rgb(84.069824%, 95.687866%, 99.629211%)" stop-opacity="1"/>
<stop offset="0.648438" stop-color="rgb(83.805847%, 95.626831%, 99.636841%)" stop-opacity="1"/>
<stop offset="0.65625" stop-color="rgb(83.54187%, 95.56427%, 99.64447%)" stop-opacity="1"/>
<stop offset="0.664062" stop-color="rgb(83.277893%, 95.503235%, 99.650574%)" stop-opacity="1"/>
<stop offset="0.671875" stop-color="rgb(83.010864%, 95.440674%, 99.658203%)" stop-opacity="1"/>
<stop offset="0.679688" stop-color="rgb(82.74231%, 95.378113%, 99.665833%)" stop-opacity="1"/>
<stop offset="0.6875" stop-color="rgb(82.472229%, 95.315552%, 99.673462%)" stop-opacity="1"/>
<stop offset="0.695312" stop-color="rgb(82.202148%, 95.252991%, 99.681091%)" stop-opacity="1"/>
<stop offset="0.703125" stop-color="rgb(81.930542%, 95.188904%, 99.687195%)" stop-opacity="1"/>
<stop offset="0.710938" stop-color="rgb(81.65741%, 95.126343%, 99.694824%)" stop-opacity="1"/>
<stop offset="0.71875" stop-color="rgb(81.384277%, 95.062256%, 99.702454%)" stop-opacity="1"/>
<stop offset="0.726562" stop-color="rgb(81.108093%, 94.998169%, 99.710083%)" stop-opacity="1"/>
<stop offset="0.734375" stop-color="rgb(80.831909%, 94.934082%, 99.717712%)" stop-opacity="1"/>
<stop offset="0.742188" stop-color="rgb(80.554199%, 94.868469%, 99.725342%)" stop-opacity="1"/>
<stop offset="0.75" stop-color="rgb(80.274963%, 94.804382%, 99.732971%)" stop-opacity="1"/>
<stop offset="0.757812" stop-color="rgb(79.994202%, 94.73877%, 99.740601%)" stop-opacity="1"/>
<stop offset="0.765625" stop-color="rgb(79.711914%, 94.673157%, 99.74823%)" stop-opacity="1"/>
<stop offset="0.773438" stop-color="rgb(79.429626%, 94.607544%, 99.755859%)" stop-opacity="1"/>
<stop offset="0.78125" stop-color="rgb(79.145813%, 94.540405%, 99.763489%)" stop-opacity="1"/>
<stop offset="0.789062" stop-color="rgb(78.860474%, 94.474792%, 99.772644%)" stop-opacity="1"/>
<stop offset="0.796875" stop-color="rgb(78.575134%, 94.407654%, 99.780273%)" stop-opacity="1"/>
<stop offset="0.804688" stop-color="rgb(78.288269%, 94.342041%, 99.787903%)" stop-opacity="1"/>
<stop offset="0.8125" stop-color="rgb(77.999878%, 94.274902%, 99.795532%)" stop-opacity="1"/>
<stop offset="0.820312" stop-color="rgb(77.709961%, 94.206238%, 99.803162%)" stop-opacity="1"/>
<stop offset="0.828125" stop-color="rgb(77.418518%, 94.139099%, 99.810791%)" stop-opacity="1"/>
<stop offset="0.835938" stop-color="rgb(77.127075%, 94.070435%, 99.819946%)" stop-opacity="1"/>
<stop offset="0.84375" stop-color="rgb(76.834106%, 94.00177%, 99.827576%)" stop-opacity="1"/>
<stop offset="0.851562" stop-color="rgb(76.539612%, 93.933105%, 99.835205%)" stop-opacity="1"/>
<stop offset="0.859375" stop-color="rgb(76.245117%, 93.864441%, 99.84436%)" stop-opacity="1"/>
<stop offset="0.867188" stop-color="rgb(75.947571%, 93.795776%, 99.85199%)" stop-opacity="1"/>
<stop offset="0.875" stop-color="rgb(75.650024%, 93.727112%, 99.859619%)" stop-opacity="1"/>
<stop offset="0.882812" stop-color="rgb(75.352478%, 93.656921%, 99.868774%)" stop-opacity="1"/>
<stop offset="0.890625" stop-color="rgb(75.05188%, 93.588257%, 99.876404%)" stop-opacity="1"/>
<stop offset="0.898438" stop-color="rgb(74.751282%, 93.518066%, 99.884033%)" stop-opacity="1"/>
<stop offset="0.90625" stop-color="rgb(74.449158%, 93.447876%, 99.893188%)" stop-opacity="1"/>
<stop offset="0.914062" stop-color="rgb(74.145508%, 93.37616%, 99.900818%)" stop-opacity="1"/>
<stop offset="0.921875" stop-color="rgb(73.841858%, 93.305969%, 99.909973%)" stop-opacity="1"/>
<stop offset="0.929688" stop-color="rgb(73.536682%, 93.234253%, 99.917603%)" stop-opacity="1"/>
<stop offset="0.9375" stop-color="rgb(73.22998%, 93.164062%, 99.926758%)" stop-opacity="1"/>
<stop offset="0.945312" stop-color="rgb(72.923279%, 93.092346%, 99.934387%)" stop-opacity="1"/>
<stop offset="0.953125" stop-color="rgb(72.615051%, 93.02063%, 99.943542%)" stop-opacity="1"/>
<stop offset="0.960938" stop-color="rgb(72.305298%, 92.947388%, 99.951172%)" stop-opacity="1"/>
<stop offset="0.96875" stop-color="rgb(71.995544%, 92.875671%, 99.960327%)" stop-opacity="1"/>
<stop offset="0.976562" stop-color="rgb(71.684265%, 92.803955%, 99.969482%)" stop-opacity="1"/>
<stop offset="0.984375" stop-color="rgb(71.37146%, 92.730713%, 99.977112%)" stop-opacity="1"/>
<stop offset="0.992188" stop-color="rgb(71.058655%, 92.657471%, 99.986267%)" stop-opacity="1"/>
<stop offset="1" stop-color="rgb(70.744324%, 92.584229%, 99.995422%)" stop-opacity="1"/>
</linearGradient>
<clipPath id="clip-2">
<path clip-rule="nonzero" d="M 2044 1154 L 2050 1154 L 2050 1155 L 2044 1155 Z M 2044 1154 "/>
</clipPath>
<clipPath id="clip-3">
<path clip-rule="nonzero" d="M 2049.410156 1154.988281 L 2044.121094 1154.949219 L 2044.121094 1154.921875 L 2049.410156 1154.988281 "/>
</clipPath>
<clipPath id="clip-4">
<path clip-rule="nonzero" d="M 2049.410156 1154.988281 L 2044.121094 1154.949219 L 2044.121094 1154.921875 L 2049.410156 1154.988281 "/>
</clipPath>
</defs>
<g clip-path="url(#clip-0)">
<g clip-path="url(#clip-1)">

</g>
</g>
<path fill-rule="nonzero" fill="rgb(80.46875%, 94.53125%, 98.826599%)" fill-opacity="1" d="M 2715.011719 784.5 C 2715.011719 670.640625 2590.289062 578.328125 2436.441406 578.328125 L 2378.328125 578.328125 C 2405.511719 560.921875 2422.730469 535.21875 2422.730469 506.53125 C 2422.730469 454.078125 2365.28125 411.570312 2294.421875 411.570312 L 2101.011719 411.570312 C 2120.570312 399.109375 2133.011719 380.691406 2133.011719 360.089844 C 2133.011719 322.558594 2091.898438 292.140625 2041.199219 292.140625 L 1555.570312 292.140625 C 1504.859375 292.140625 1463.761719 322.558594 1463.761719 360.089844 C 1463.761719 397.609375 1504.859375 428.039062 1555.570312 428.039062 L 1737.398438 428.039062 C 1771.261719 445.128906 1793.488281 473.910156 1793.488281 506.53125 C 1793.488281 535.21875 1776.28125 560.921875 1749.101562 578.328125 L 1450.050781 578.328125 C 1296.199219 578.328125 1171.480469 670.640625 1171.480469 784.5 C 1171.480469 898.359375 1296.199219 990.671875 1450.050781 990.671875 L 1053.878906 990.671875 C 983.011719 990.671875 925.5625 1033.179688 925.5625 1085.628906 C 925.5625 1138.070312 983.011719 1180.589844 1053.878906 1180.589844 L 892.453125 1180.589844 C 716.089844 1180.589844 569.6875 1275.21875 540.632812 1399.601562 L 484.105469 1399.601562 C 374.140625 1399.601562 284.992188 1465.570312 284.992188 1546.960938 L 284.992188 1561.890625 C 284.992188 1643.269531 374.140625 1709.25 484.105469 1709.25 L 2357.851562 1709.25 C 2555.101562 1709.25 2715.011719 1590.898438 2715.011719 1444.921875 C 2715.011719 1298.929688 2555.101562 1180.589844 2357.851562 1180.589844 L 1732.578125 1180.589844 C 1803.449219 1180.589844 1860.890625 1138.070312 1860.890625 1085.628906 C 1860.890625 1033.179688 1803.449219 990.671875 1732.578125 990.671875 L 2436.441406 990.671875 C 2590.289062 990.671875 2715.011719 898.359375 2715.011719 784.5 "/>
<path fill-rule="nonzero" fill="rgb(80.46875%, 94.53125%, 98.826599%)" fill-opacity="1" d="M 1127.089844 433.488281 C 1167.621094 433.488281 1200.488281 400.621094 1200.488281 360.089844 C 1200.488281 319.550781 1167.621094 286.691406 1127.089844 286.691406 C 1086.550781 286.691406 1053.691406 319.550781 1053.691406 360.089844 C 1053.691406 400.621094 1086.550781 433.488281 1127.089844 433.488281 "/>
<path fill-rule="nonzero" fill="rgb(64.256287%, 88.28125%, 95.701599%)" fill-opacity="1" d="M 2704.519531 1697.71875 C 2704.519531 1747.871094 2165.238281 1788.53125 1500 1788.53125 C 834.761719 1788.53125 295.476562 1747.871094 295.476562 1697.71875 C 295.476562 1647.570312 834.761719 1606.910156 1500 1606.910156 C 2165.238281 1606.910156 2704.519531 1647.570312 2704.519531 1697.71875 "/>
<path fill-rule="nonzero" fill="rgb(80.46875%, 94.53125%, 98.826599%)" fill-opacity="1" d="M 776.777344 492.011719 C 776.78125 491.808594 776.828125 491.609375 776.792969 491.398438 C 774.929688 480.199219 765.15625 443.890625 716.894531 446.871094 C 716.894531 446.871094 714.746094 373.589844 627.4375 405.28125 C 627.4375 405.28125 553.492188 321.671875 506.535156 417.628906 C 506.535156 417.628906 407.042969 376.550781 403.15625 490.660156 C 403.140625 491.121094 403.179688 491.570312 403.230469 492.011719 L 776.777344 492.011719 "/>
<path fill-rule="nonzero" fill="rgb(97.65625%, 47.459412%, 13.719177%)" fill-opacity="1" d="M 701.867188 1593.199219 L 701.867188 1573.601562 L 1707.921875 1573.601562 C 1759.621094 1573.601562 1801.539062 1601.691406 1801.539062 1636.339844 L 1801.539062 1636.730469 C 1801.539062 1671.378906 1759.621094 1699.480469 1707.921875 1699.480469 L 701.867188 1699.480469 L 701.867188 1679.878906 C 733.171875 1635.648438 701.867188 1593.199219 701.867188 1593.199219 "/>
<path fill-rule="nonzero" fill="rgb(91.014099%, 41.575623%, 7.446289%)" fill-opacity="1" d="M 1487.839844 1573.601562 L 1415.128906 1573.601562 C 1445.109375 1585.378906 1465.628906 1609.019531 1465.628906 1636.320312 L 1465.628906 1636.761719 C 1465.628906 1664.050781 1445.109375 1687.691406 1415.128906 1699.480469 L 1487.839844 1699.480469 C 1539.539062 1699.480469 1581.460938 1671.378906 1581.460938 1636.730469 L 1581.460938 1636.339844 C 1581.460938 1601.691406 1539.539062 1573.601562 1487.839844 1573.601562 "/>
<path fill-rule="nonzero" fill="rgb(91.014099%, 41.575623%, 7.446289%)" fill-opacity="1" d="M 1743.621094 1636.761719 L 1743.621094 1636.320312 C 1743.621094 1609.019531 1723.109375 1585.378906 1693.121094 1573.601562 L 1646.789062 1573.601562 C 1676.78125 1585.378906 1697.289062 1609.019531 1697.289062 1636.320312 L 1697.289062 1636.761719 C 1697.289062 1664.050781 1676.78125 1687.691406 1646.789062 1699.480469 L 1693.121094 1699.480469 C 1723.109375 1687.691406 1743.621094 1664.050781 1743.621094 1636.761719 "/>
<path fill-rule="nonzero" fill="rgb(89.451599%, 41.967773%, 9.008789%)" fill-opacity="1" d="M 701.867188 1573.601562 L 1195.21875 1573.601562 C 1236.558594 1573.601562 1270.078125 1596.058594 1270.078125 1623.769531 L 1270.078125 1649.308594 C 1270.078125 1677.011719 1236.558594 1699.480469 1195.21875 1699.480469 L 701.867188 1699.480469 L 701.867188 1679.878906 C 733.171875 1635.648438 701.867188 1593.199219 701.867188 1593.199219 L 701.867188 1573.601562 "/>
<path fill-rule="nonzero" fill="rgb(92.96875%, 94.139099%, 93.75%)" fill-opacity="1" d="M 1189.949219 1593.199219 C 1218.421875 1593.199219 1241.5 1608.660156 1241.5 1627.738281 L 1241.5 1645.328125 C 1241.5 1664.410156 1218.421875 1679.878906 1189.949219 1679.878906 L 701.867188 1679.878906 C 729.257812 1636.539062 701.867188 1593.199219 701.867188 1593.199219 L 1189.949219 1593.199219 "/>
<path fill-rule="nonzero" fill="rgb(85.9375%, 89.451599%, 89.0625%)" fill-opacity="1" d="M 713.511719 1628.941406 C 711.175781 1608.070312 701.925781 1593.28125 701.867188 1593.199219 C 701.925781 1593.28125 711.226562 1608.058594 713.53125 1628.941406 L 713.511719 1628.941406 "/>
<path fill-rule="nonzero" fill="rgb(83.201599%, 88.28125%, 88.671875%)" fill-opacity="1" d="M 714.023438 1636.539062 C 713.96875 1633.929688 713.789062 1631.390625 713.511719 1628.941406 L 713.53125 1628.941406 C 713.800781 1631.390625 713.976562 1633.929688 714.027344 1636.539062 L 714.023438 1636.539062 "/>
<path fill-rule="nonzero" fill="rgb(88.28125%, 89.451599%, 88.28125%)" fill-opacity="1" d="M 714.027344 1636.539062 C 713.976562 1633.929688 713.800781 1631.390625 713.53125 1628.941406 C 711.226562 1608.058594 701.925781 1593.28125 701.867188 1593.199219 L 1189.949219 1593.199219 C 1218.421875 1593.199219 1241.5 1608.660156 1241.5 1627.738281 L 1241.5 1636.539062 L 714.023438 1636.539062 "/>
<path fill-rule="nonzero" fill="rgb(0.784302%, 18.431091%, 62.693787%)" fill-opacity="1" d="M 1174.128906 1623.769531 C 1174.128906 1623.769531 1169.171875 1627.921875 1168.550781 1637.46875 C 1167.929688 1647.03125 1161.109375 1658.238281 1161.109375 1658.238281 L 1145 1647.449219 L 1127.640625 1658.238281 C 1127.640625 1658.238281 1133.21875 1644.949219 1133.21875 1637.890625 C 1133.21875 1630.828125 1141.898438 1623.769531 1141.898438 1623.769531 L 1174.128906 1623.769531 "/>
<path fill-rule="nonzero" fill="rgb(91.014099%, 33.325195%, 41.184998%)" fill-opacity="1" d="M 691.660156 1267.601562 L 691.660156 1234.25 L 1535.460938 1234.25 C 1578.828125 1234.25 1613.980469 1282.058594 1613.980469 1341.039062 L 1613.980469 1341.699219 C 1613.980469 1400.679688 1578.828125 1448.488281 1535.460938 1448.488281 L 691.660156 1448.488281 L 691.660156 1415.128906 C 717.914062 1339.859375 691.660156 1267.601562 691.660156 1267.601562 "/>
<path fill-rule="nonzero" fill="rgb(85.546875%, 32.151794%, 39.988708%)" fill-opacity="1" d="M 1351.171875 1448.488281 L 1289.890625 1448.488281 C 1315.039062 1428.429688 1332.238281 1388.199219 1332.238281 1341.738281 L 1332.238281 1341 C 1332.238281 1294.539062 1315.039062 1254.308594 1289.890625 1234.25 L 1351.171875 1234.25 C 1394.398438 1234.460938 1429.390625 1282.191406 1429.390625 1341.039062 L 1429.390625 1341.699219 C 1429.390625 1400.539062 1394.398438 1448.269531 1351.171875 1448.488281 "/>
<path fill-rule="nonzero" fill="rgb(73.631287%, 23.535156%, 35.693359%)" fill-opacity="1" d="M 691.660156 1234.25 L 1105.449219 1234.25 C 1140.121094 1234.25 1168.230469 1272.480469 1168.230469 1319.628906 L 1168.230469 1363.101562 C 1168.230469 1410.261719 1140.121094 1448.488281 1105.449219 1448.488281 L 691.660156 1448.488281 L 691.660156 1415.128906 C 717.914062 1339.859375 691.660156 1267.601562 691.660156 1267.601562 L 691.660156 1234.25 "/>
<path fill-rule="nonzero" fill="rgb(92.96875%, 94.139099%, 93.75%)" fill-opacity="1" d="M 1101.03125 1267.601562 C 1124.898438 1267.601562 1144.261719 1293.929688 1144.261719 1326.398438 L 1144.261719 1356.339844 C 1144.261719 1388.808594 1124.898438 1415.128906 1101.03125 1415.128906 L 691.660156 1415.128906 C 714.632812 1341.371094 691.660156 1267.601562 691.660156 1267.601562 L 1101.03125 1267.601562 "/>
<path fill-rule="nonzero" fill="rgb(85.9375%, 89.451599%, 89.0625%)" fill-opacity="1" d="M 701.855469 1341.371094 C 701.398438 1299.230469 691.738281 1267.851562 691.660156 1267.609375 C 691.738281 1267.851562 701.449219 1299.199219 701.859375 1341.371094 L 701.855469 1341.371094 "/>
<path fill-rule="nonzero" fill="rgb(88.28125%, 89.451599%, 88.28125%)" fill-opacity="1" d="M 701.859375 1341.371094 C 701.449219 1299.199219 691.738281 1267.851562 691.660156 1267.609375 L 691.660156 1267.601562 L 1101.03125 1267.601562 C 1124.898438 1267.601562 1144.261719 1293.929688 1144.261719 1326.398438 L 1144.261719 1341.371094 L 701.855469 1341.371094 "/>
<path fill-rule="nonzero" fill="rgb(0%, 44.309998%, 73.631287%)" fill-opacity="1" d="M 1864.71875 1468.089844 L 1864.71875 1448.488281 L 858.667969 1448.488281 C 806.964844 1448.488281 788.785156 1479.800781 788.785156 1514.449219 L 788.785156 1516.089844 C 788.785156 1550.738281 806.964844 1574.371094 858.667969 1574.371094 L 1864.71875 1574.371094 L 1864.71875 1554.769531 C 1833.421875 1510.539062 1864.71875 1468.089844 1864.71875 1468.089844 "/>
<path fill-rule="nonzero" fill="rgb(1.567078%, 39.598083%, 60.742188%)" fill-opacity="1" d="M 1078.75 1448.488281 L 1151.460938 1448.488281 C 1121.46875 1460.269531 1100.960938 1483.910156 1100.960938 1511.210938 L 1100.960938 1511.648438 C 1100.960938 1538.941406 1121.46875 1562.578125 1151.460938 1574.371094 L 1078.75 1574.371094 C 1027.039062 1574.371094 985.128906 1546.269531 985.128906 1511.621094 L 985.128906 1511.230469 C 985.128906 1476.578125 1027.039062 1448.488281 1078.75 1448.488281 "/>
<path fill-rule="nonzero" fill="rgb(0.784302%, 38.818359%, 59.959412%)" fill-opacity="1" d="M 1864.71875 1448.488281 L 1371.371094 1448.488281 C 1330.019531 1448.488281 1296.511719 1470.949219 1296.511719 1498.660156 L 1296.511719 1524.199219 C 1296.511719 1551.910156 1330.019531 1574.371094 1371.371094 1574.371094 L 1864.71875 1574.371094 L 1864.71875 1554.769531 C 1833.421875 1510.539062 1864.71875 1468.089844 1864.71875 1468.089844 L 1864.71875 1448.488281 "/>
<path fill-rule="nonzero" fill="rgb(92.96875%, 94.139099%, 93.75%)" fill-opacity="1" d="M 1376.640625 1468.089844 C 1348.171875 1468.089844 1325.089844 1483.550781 1325.089844 1502.628906 L 1325.089844 1520.21875 C 1325.089844 1539.300781 1348.171875 1554.769531 1376.640625 1554.769531 L 1864.71875 1554.769531 C 1837.328125 1511.429688 1864.71875 1468.089844 1864.71875 1468.089844 L 1376.640625 1468.089844 "/>
<path fill-rule="nonzero" fill="rgb(85.9375%, 89.451599%, 89.0625%)" fill-opacity="1" d="M 1852.558594 1511.429688 C 1853.050781 1486.621094 1864.660156 1468.191406 1864.71875 1468.089844 C 1864.660156 1468.179688 1853.109375 1486.640625 1852.558594 1511.429688 "/>
<path fill-rule="nonzero" fill="rgb(88.28125%, 89.451599%, 88.28125%)" fill-opacity="1" d="M 1852.558594 1511.429688 L 1325.089844 1511.429688 L 1325.089844 1502.628906 C 1325.089844 1483.550781 1348.171875 1468.089844 1376.640625 1468.089844 L 1864.71875 1468.089844 C 1864.660156 1468.191406 1853.050781 1486.621094 1852.558594 1511.429688 "/>
<path fill-rule="nonzero" fill="rgb(62.693787%, 11.767578%, 22.75238%)" fill-opacity="1" d="M 1392.460938 1498.660156 C 1392.460938 1498.660156 1397.421875 1502.808594 1398.039062 1512.371094 C 1398.660156 1521.921875 1405.480469 1533.140625 1405.480469 1533.140625 L 1421.589844 1522.328125 L 1438.941406 1533.140625 C 1438.941406 1533.140625 1433.371094 1519.839844 1433.371094 1512.78125 C 1433.371094 1505.71875 1424.691406 1498.660156 1424.691406 1498.660156 L 1392.460938 1498.660156 "/>
<path fill-rule="nonzero" fill="rgb(96.09375%, 76.171875%, 33.714294%)" fill-opacity="1" d="M 1652.941406 1095.691406 L 1652.941406 1070.140625 L 711.796875 1070.140625 C 663.429688 1070.140625 624.222656 1106.761719 624.222656 1151.941406 L 624.222656 1152.449219 C 624.222656 1197.621094 663.429688 1234.25 711.796875 1234.25 L 1652.941406 1234.25 L 1652.941406 1208.699219 C 1623.660156 1151.039062 1652.941406 1095.691406 1652.941406 1095.691406 "/>
<path fill-rule="nonzero" fill="rgb(92.96875%, 65.429688%, 10.205078%)" fill-opacity="1" d="M 985.703125 1234.25 L 917.679688 1234.25 C 869.3125 1234.25 830.101562 1197.621094 830.101562 1152.449219 L 830.101562 1151.941406 C 830.101562 1111.140625 862.089844 1077.308594 903.917969 1071.140625 L 983.921875 1071.140625 C 956.839844 1086.820312 938.460938 1117.078125 938.460938 1151.910156 L 938.460938 1152.480469 C 938.460938 1188.070312 957.648438 1218.890625 985.703125 1234.25 "/>
<path fill-rule="nonzero" fill="rgb(91.796875%, 61.521912%, 1.177979%)" fill-opacity="1" d="M 1652.941406 1070.140625 L 1191.421875 1070.140625 C 1152.75 1070.140625 1121.390625 1099.421875 1121.390625 1135.550781 L 1121.390625 1168.839844 C 1121.390625 1204.96875 1152.75 1234.25 1191.421875 1234.25 L 1652.941406 1234.25 L 1652.941406 1208.699219 C 1623.660156 1151.039062 1652.941406 1095.691406 1652.941406 1095.691406 L 1652.941406 1070.140625 "/>
<path fill-rule="nonzero" fill="rgb(92.96875%, 94.139099%, 93.75%)" fill-opacity="1" d="M 1196.351562 1095.691406 C 1169.71875 1095.691406 1148.128906 1115.859375 1148.128906 1140.730469 L 1148.128906 1163.660156 C 1148.128906 1188.53125 1169.71875 1208.699219 1196.351562 1208.699219 L 1652.941406 1208.699219 C 1627.320312 1152.191406 1652.941406 1095.691406 1652.941406 1095.691406 L 1196.351562 1095.691406 "/>
<path fill-rule="nonzero" fill="rgb(85.9375%, 89.451599%, 89.0625%)" fill-opacity="1" d="M 1641.570312 1152.191406 C 1642.03125 1119.828125 1652.898438 1095.789062 1652.941406 1095.691406 C 1652.890625 1095.800781 1642.078125 1119.859375 1641.570312 1152.191406 M 1652.941406 1095.691406 L 1652.941406 1095.691406 "/>
<path fill-rule="nonzero" fill="rgb(88.28125%, 89.451599%, 88.28125%)" fill-opacity="1" d="M 1641.570312 1152.191406 L 1148.128906 1152.191406 L 1148.128906 1140.730469 C 1148.128906 1115.859375 1169.71875 1095.691406 1196.351562 1095.691406 L 1652.941406 1095.691406 C 1652.898438 1095.789062 1642.03125 1119.828125 1641.570312 1152.191406 "/>
<path fill-rule="nonzero" fill="rgb(62.693787%, 11.767578%, 22.75238%)" fill-opacity="1" d="M 1211.148438 1135.550781 C 1211.148438 1135.550781 1215.789062 1140.960938 1216.371094 1153.421875 C 1216.949219 1165.871094 1223.328125 1180.5 1223.328125 1180.5 L 1238.398438 1166.421875 L 1254.640625 1180.5 C 1254.640625 1180.5 1249.421875 1163.171875 1249.421875 1153.960938 C 1249.421875 1144.75 1241.300781 1135.550781 1241.300781 1135.550781 L 1211.148438 1135.550781 "/>
<path fill-rule="nonzero" fill="rgb(8.227539%, 66.601562%, 33.325195%)" fill-opacity="1" d="M 1608.398438 954.160156 L 1608.398438 932.578125 L 813.792969 932.578125 C 772.953125 932.578125 739.851562 963.511719 739.851562 1001.648438 L 739.851562 1002.078125 C 739.851562 1040.21875 772.953125 1071.140625 813.792969 1071.140625 L 1608.398438 1071.140625 L 1608.398438 1049.570312 C 1583.679688 1000.890625 1608.398438 954.160156 1608.398438 954.160156 "/>
<path fill-rule="nonzero" fill="rgb(6.272888%, 59.568787%, 28.24707%)" fill-opacity="1" d="M 1045.050781 1071.140625 L 987.273438 1071.140625 C 946.597656 1070.96875 913.675781 1040.109375 913.675781 1002.078125 L 913.675781 1001.648438 C 913.675781 972.890625 932.496094 948.238281 959.253906 937.851562 C 978.261719 942.679688 999.488281 947.351562 1022.71875 951.328125 C 1011.78125 964.878906 1005.171875 982.429688 1005.171875 1001.621094 L 1005.171875 1002.109375 C 1005.171875 1032.148438 1021.371094 1058.171875 1045.050781 1071.140625 "/>
<path fill-rule="nonzero" fill="rgb(0%, 59.568787%, 26.660156%)" fill-opacity="1" d="M 1608.398438 932.578125 L 1218.738281 932.578125 C 1186.089844 932.578125 1159.621094 957.308594 1159.621094 987.808594 L 1159.621094 1015.921875 C 1159.621094 1046.421875 1186.089844 1071.140625 1218.738281 1071.140625 L 1608.398438 1071.140625 L 1608.398438 1049.570312 C 1583.679688 1000.890625 1608.398438 954.160156 1608.398438 954.160156 L 1608.398438 932.578125 "/>
<path fill-rule="nonzero" fill="rgb(92.96875%, 94.139099%, 93.75%)" fill-opacity="1" d="M 1222.898438 954.160156 C 1200.421875 954.160156 1182.191406 971.179688 1182.191406 992.179688 L 1182.191406 1011.539062 C 1182.191406 1032.550781 1200.421875 1049.570312 1222.898438 1049.570312 L 1608.398438 1049.570312 C 1586.769531 1001.859375 1608.398438 954.160156 1608.398438 954.160156 L 1222.898438 954.160156 "/>
<path fill-rule="nonzero" fill="rgb(85.9375%, 89.451599%, 89.0625%)" fill-opacity="1" d="M 1598.800781 1001.859375 C 1599.191406 974.480469 1608.398438 954.160156 1608.398438 954.160156 C 1608.398438 954.160156 1599.238281 974.511719 1598.800781 1001.859375 "/>
<path fill-rule="nonzero" fill="rgb(88.28125%, 89.451599%, 88.28125%)" fill-opacity="1" d="M 1598.800781 1001.859375 L 1182.191406 1001.859375 L 1182.191406 992.179688 C 1182.191406 979.960938 1188.359375 969.089844 1197.960938 962.128906 C 1227.261719 960.769531 1254.679688 957.910156 1279.921875 954.160156 L 1608.398438 954.160156 C 1608.398438 954.160156 1599.191406 974.480469 1598.800781 1001.859375 "/>
<path fill-rule="nonzero" fill="rgb(0.784302%, 18.431091%, 62.693787%)" fill-opacity="1" d="M 1235.398438 987.808594 C 1235.398438 987.808594 1239.320312 992.378906 1239.808594 1002.898438 C 1240.289062 1013.410156 1245.679688 1025.761719 1245.679688 1025.761719 L 1258.410156 1013.871094 L 1272.121094 1025.761719 C 1272.121094 1025.761719 1267.710938 1011.128906 1267.710938 1003.351562 C 1267.710938 995.578125 1260.859375 987.808594 1260.859375 987.808594 L 1235.398438 987.808594 "/>
<path fill-rule="nonzero" fill="rgb(8.616638%, 6.665039%, 6.665039%)" fill-opacity="1" d="M 2002.78125 1310.199219 L 2022.601562 1310.5 C 2049.089844 1310.890625 2070.878906 1289.699219 2071.28125 1263.148438 C 2071.449219 1251.949219 2062.519531 1242.730469 2051.328125 1242.558594 L 1976.078125 1241.441406 C 1964.898438 1241.28125 1955.699219 1250.21875 1955.539062 1261.421875 C 1955.140625 1287.960938 1976.289062 1309.800781 2002.78125 1310.199219 "/>
<path fill-rule="nonzero" fill="rgb(70.896912%, 70.896912%, 70.896912%)" fill-opacity="1" d="M 1919.191406 1205.089844 L 2109.289062 1207.929688 C 2125.660156 1208.171875 2138.738281 1221.640625 2138.488281 1238.011719 C 2138.25 1254.390625 2124.78125 1267.460938 2108.410156 1267.21875 L 1918.300781 1264.378906 C 1901.929688 1264.140625 1888.859375 1250.671875 1889.101562 1234.300781 C 1889.339844 1217.921875 1902.808594 1204.851562 1919.191406 1205.089844 "/>
<path fill-rule="nonzero" fill="rgb(80.46875%, 80.46875%, 79.6875%)" fill-opacity="1" d="M 1918 1200.761719 L 2110.601562 1203.640625 C 2126.289062 1203.871094 2138.808594 1216.78125 2138.578125 1232.46875 L 2138.539062 1234.960938 C 2138.300781 1250.640625 2125.398438 1263.160156 2109.71875 1262.929688 L 1917.121094 1260.050781 C 1901.429688 1259.820312 1888.910156 1246.921875 1889.140625 1231.230469 L 1889.179688 1228.738281 C 1889.410156 1213.050781 1902.320312 1200.53125 1918 1200.761719 "/>
<path fill-rule="nonzero" fill="rgb(70.896912%, 70.896912%, 70.896912%)" fill-opacity="1" d="M 1889.128906 1231.738281 L 1889.191406 1228.21875 C 1889.421875 1212.828125 1902.058594 1200.519531 1917.429688 1200.761719 L 1992.269531 1201.878906 C 1993.570312 1204.109375 1995.039062 1206.398438 1996.71875 1208.761719 C 1996.71875 1208.761719 1975.488281 1228.589844 1987.890625 1261.109375 L 1916.550781 1260.050781 C 1901.179688 1259.820312 1888.910156 1247.140625 1889.128906 1231.738281 "/>
<path fill-rule="nonzero" fill="rgb(100%, 64.646912%, 0%)" fill-opacity="1" d="M 1738.761719 791.449219 C 1741.199219 627.570312 1868.011719 496.570312 2021.980469 498.871094 C 2175.949219 501.171875 2298.789062 635.878906 2296.339844 799.769531 C 2294.910156 895.160156 2251.339844 979.378906 2184.820312 1032.679688 C 2161.839844 1051.078125 2148.078125 1079.699219 2147.621094 1110.28125 L 2146.929688 1156.449219 L 1880.839844 1152.480469 L 1881.488281 1109.078125 C 1881.949219 1078.089844 1868.691406 1048.75 1845.769531 1029.691406 C 1779.421875 974.511719 1737.320312 888.058594 1738.761719 791.449219 "/>
<g clip-path="url(#clip-2)">
<g clip-path="url(#clip-3)">
<g clip-path="url(#clip-4)">
<path fill-rule="nonzero" fill="rgb(61.540222%, 32.00531%, 17.826843%)" fill-opacity="1" d="M 2049.410156 1154.921875 L 2044.121094 1154.921875 L 2044.121094 1154.988281 L 2049.410156 1154.988281 Z M 2049.410156 1154.921875 "/>
</g>
</g>
</g>
<path fill-rule="nonzero" fill="rgb(63.476562%, 27.43988%, 3.137207%)" fill-opacity="1" d="M 2055.140625 1155.050781 L 2049.410156 1154.988281 L 2044.121094 1154.921875 L 2045.460938 998.171875 L 1987.191406 997.988281 L 1984.859375 1154.03125 L 1973.839844 1153.871094 L 1976.171875 997.949219 L 1924.191406 997.78125 L 1922.769531 996.769531 C 1921.730469 996.039062 1897.488281 978.589844 1897.351562 955.878906 C 1897.28125 943.839844 1903.808594 932.941406 1916.78125 923.488281 C 1926.808594 916.171875 1936.609375 912.488281 1946.011719 912.488281 C 1949.28125 912.488281 1952.5 912.929688 1955.660156 913.828125 C 1976.890625 919.769531 1987.109375 943.699219 1987.53125 944.710938 L 1987.359375 986.929688 L 2045.550781 987.121094 L 2045.988281 936.289062 L 2047.128906 934.820312 C 2047.851562 933.890625 2064.941406 912.210938 2087.089844 912.210938 C 2087.261719 912.210938 2087.429688 912.210938 2087.601562 912.210938 L 2087.628906 912.210938 C 2100 912.410156 2111.148438 919.230469 2120.75 932.480469 C 2131.390625 947.121094 2134.871094 960.648438 2131.109375 972.679688 C 2125.488281 990.671875 2105.691406 997.761719 2104.851562 998.058594 L 2056.480469 998.210938 L 2055.140625 1155.050781 M 2087.089844 923.261719 C 2073.078125 923.261719 2060.710938 936 2056.980469 940.238281 L 2056.578125 987.160156 L 2102.011719 987.308594 C 2105.21875 985.960938 2117.210938 980.308594 2120.609375 969.320312 C 2123.238281 960.820312 2120.28125 950.621094 2111.839844 938.96875 C 2104.378906 928.699219 2096.191406 923.410156 2087.5 923.261719 L 2087.429688 923.261719 C 2087.320312 923.261719 2087.199219 923.261719 2087.089844 923.261719 M 1946.109375 923.558594 C 1939.011719 923.558594 1931.359375 926.539062 1923.261719 932.429688 C 1913.339844 939.648438 1908.339844 947.511719 1908.371094 955.769531 C 1908.441406 970.25 1923.25 983.121094 1927.820312 986.75 L 1976.339844 986.898438 L 1976.921875 948 C 1974.980469 943.941406 1966.761719 928.410156 1952.699219 924.460938 C 1950.558594 923.859375 1948.359375 923.558594 1946.109375 923.558594 "/>
<path fill-rule="nonzero" fill="rgb(92.1875%, 52.539062%, 5.099487%)" fill-opacity="1" d="M 1738.941406 784.609375 C 1738.960938 783.980469 1738.988281 783.359375 1739.019531 782.730469 C 1739.089844 780.878906 1739.191406 779.039062 1739.289062 777.210938 C 1739.320312 776.738281 1739.351562 776.269531 1739.378906 775.800781 C 1739.519531 773.570312 1739.691406 771.339844 1739.878906 769.121094 C 1739.921875 768.589844 1739.96875 768.058594 1740.019531 767.53125 C 1740.179688 765.761719 1740.351562 763.988281 1740.539062 762.230469 C 1740.609375 761.621094 1740.671875 761.011719 1740.738281 760.398438 C 1740.988281 758.199219 1741.25 756 1741.550781 753.808594 C 1741.578125 753.578125 1741.621094 753.339844 1741.648438 753.101562 C 1741.921875 751.128906 1742.210938 749.171875 1742.511719 747.21875 C 1742.609375 746.570312 1742.710938 745.929688 1742.820312 745.28125 C 1743.109375 743.511719 1743.410156 741.75 1743.71875 739.988281 C 1743.800781 739.550781 1743.878906 739.109375 1743.960938 738.671875 C 1744.351562 736.558594 1744.761719 734.449219 1745.191406 732.359375 C 1745.320312 731.75 1745.449219 731.140625 1745.578125 730.539062 C 1745.921875 728.941406 1746.269531 727.328125 1746.628906 725.738281 C 1746.78125 725.109375 1746.921875 724.480469 1747.070312 723.851562 C 1747.550781 721.800781 1748.050781 719.75 1748.570312 717.71875 C 1748.691406 717.261719 1748.808594 716.800781 1748.929688 716.339844 C 1749.359375 714.699219 1749.800781 713.070312 1750.261719 711.429688 C 1750.460938 710.738281 1750.648438 710.039062 1750.851562 709.339844 C 1751.308594 707.71875 1751.789062 706.109375 1752.28125 704.5 C 1752.421875 704.03125 1752.558594 703.570312 1752.699219 703.109375 C 1753.300781 701.171875 1753.929688 699.230469 1754.558594 697.308594 C 1754.800781 696.589844 1755.039062 695.878906 1755.289062 695.179688 C 1755.75 693.808594 1756.21875 692.441406 1756.710938 691.078125 C 1756.960938 690.378906 1757.199219 689.679688 1757.460938 688.980469 C 1758.128906 687.121094 1758.828125 685.269531 1759.53125 683.429688 C 1759.789062 682.769531 1760.050781 682.109375 1760.308594 681.449219 C 1760.828125 680.140625 1761.351562 678.851562 1761.878906 677.550781 C 1762.199219 676.769531 1762.519531 675.980469 1762.851562 675.199219 C 1763.421875 673.828125 1764 672.480469 1764.601562 671.121094 C 1764.980469 670.238281 1765.378906 669.351562 1765.769531 668.46875 C 1766.398438 667.050781 1767.039062 665.640625 1767.699219 664.238281 C 1768.089844 663.410156 1768.480469 662.589844 1768.871094 661.761719 C 1769.390625 660.679688 1769.921875 659.589844 1770.449219 658.519531 C 1770.839844 657.710938 1771.230469 656.910156 1771.628906 656.109375 C 1772.460938 654.480469 1773.289062 652.851562 1774.140625 651.238281 C 1774.589844 650.390625 1775.039062 649.550781 1775.5 648.710938 C 1776.011719 647.75 1776.53125 646.800781 1777.050781 645.851562 C 1777.550781 644.949219 1778.039062 644.058594 1778.539062 643.171875 C 1779.101562 642.179688 1779.671875 641.199219 1780.25 640.21875 C 1781.058594 638.808594 1781.878906 637.421875 1782.71875 636.039062 C 1783.238281 635.171875 1783.761719 634.300781 1784.289062 633.441406 C 1784.871094 632.5 1785.449219 631.558594 1786.050781 630.628906 C 1786.53125 629.871094 1787.011719 629.101562 1787.511719 628.339844 C 1788.53125 626.761719 1789.558594 625.179688 1790.609375 623.621094 C 1791.109375 622.878906 1791.609375 622.128906 1792.109375 621.390625 C 1792.789062 620.410156 1793.46875 619.441406 1794.148438 618.46875 C 1794.601562 617.828125 1795.050781 617.191406 1795.5 616.558594 C 1796.210938 615.570312 1796.910156 614.578125 1797.628906 613.601562 C 1797.988281 613.109375 1798.359375 612.628906 1798.71875 612.148438 C 1800.101562 610.28125 1801.5 608.429688 1802.929688 606.601562 C 1803.308594 606.109375 1803.691406 605.621094 1804.070312 605.128906 C 1804.878906 604.121094 1805.691406 603.109375 1806.5 602.101562 C 1806.859375 601.660156 1807.21875 601.21875 1807.578125 600.78125 C 1809.398438 598.570312 1811.25 596.371094 1813.121094 594.21875 L 1813.179688 594.140625 C 1814.101562 593.101562 1815.019531 592.058594 1815.960938 591.019531 C 1816.28125 590.660156 1816.609375 590.289062 1816.941406 589.929688 C 1819.921875 586.640625 1822.96875 583.421875 1826.089844 580.28125 C 1826.320312 580.039062 1826.550781 579.808594 1826.78125 579.578125 C 1827.820312 578.539062 1828.871094 577.5 1829.921875 576.480469 C 1830.070312 576.339844 1830.210938 576.199219 1830.359375 576.058594 C 1833.691406 572.839844 1837.089844 569.710938 1840.558594 566.660156 C 1840.75 566.5 1840.929688 566.339844 1841.121094 566.179688 C 1844.621094 563.121094 1848.191406 560.148438 1851.839844 557.269531 C 1851.949219 557.191406 1852.058594 557.101562 1852.171875 557.011719 C 1857.210938 553.039062 1862.371094 549.261719 1867.648438 545.660156 L 1867.828125 545.539062 C 1871.769531 542.851562 1875.789062 540.269531 1879.871094 537.78125 L 1880.050781 537.679688 C 1885.550781 534.339844 1891.179688 531.191406 1896.910156 528.25 C 1830.398438 607.988281 1743.210938 785.230469 1822.058594 945.730469 C 1926.871094 1159.039062 2102.828125 1096.359375 2155.851562 1071.210938 C 2150.699219 1083.351562 2147.828125 1096.621094 2147.621094 1110.28125 L 2146.929688 1156.449219 L 1880.839844 1152.480469 L 1881.488281 1109.078125 C 1881.558594 1104.238281 1881.289062 1099.441406 1880.710938 1094.710938 C 1880.238281 1090.929688 1879.578125 1087.191406 1878.710938 1083.519531 C 1878.488281 1082.601562 1878.261719 1081.691406 1878.019531 1080.78125 C 1877.539062 1078.960938 1877.011719 1077.148438 1876.429688 1075.371094 C 1875.558594 1072.699219 1874.589844 1070.058594 1873.511719 1067.480469 C 1870.269531 1059.730469 1866.101562 1052.429688 1861.078125 1045.78125 C 1859.96875 1044.300781 1858.820312 1042.851562 1857.621094 1041.441406 C 1856.421875 1040.019531 1855.179688 1038.648438 1853.898438 1037.300781 C 1853.269531 1036.628906 1852.621094 1035.96875 1851.960938 1035.308594 C 1849.980469 1033.351562 1847.921875 1031.46875 1845.769531 1029.691406 C 1837.480469 1022.789062 1829.558594 1015.398438 1822.058594 1007.570312 C 1821.128906 1006.589844 1820.199219 1005.609375 1819.269531 1004.609375 C 1817.421875 1002.621094 1815.601562 1000.609375 1813.808594 998.570312 C 1812.011719 996.53125 1810.238281 994.460938 1808.5 992.371094 C 1805.890625 989.230469 1803.339844 986.03125 1800.859375 982.769531 C 1798.371094 979.511719 1795.949219 976.191406 1793.601562 972.820312 C 1792.03125 970.578125 1790.488281 968.308594 1788.96875 966.011719 C 1781.421875 954.539062 1774.609375 942.46875 1768.609375 929.890625 C 1766.820312 926.121094 1765.101562 922.300781 1763.449219 918.429688 C 1762.351562 915.859375 1761.28125 913.261719 1760.25 910.640625 C 1759.21875 908.03125 1758.230469 905.390625 1757.269531 902.75 C 1754.871094 896.109375 1752.679688 889.371094 1750.71875 882.519531 C 1742.5 853.761719 1738.289062 823.148438 1738.761719 791.449219 C 1738.789062 789.160156 1738.859375 786.878906 1738.941406 784.609375 "/>
<path fill-rule="nonzero" fill="rgb(70.896912%, 70.896912%, 70.896912%)" fill-opacity="1" d="M 1888.070312 1210.589844 L 2140.230469 1214.351562 C 2156.210938 1214.589844 2169.359375 1201.808594 2169.589844 1185.789062 C 2169.828125 1169.78125 2157.070312 1156.601562 2141.089844 1156.359375 L 1888.941406 1152.601562 C 1872.960938 1152.359375 1859.808594 1165.148438 1859.570312 1181.171875 C 1859.328125 1197.179688 1872.101562 1210.351562 1888.070312 1210.589844 "/>
<path fill-rule="nonzero" fill="rgb(77.734375%, 77.734375%, 77.734375%)" fill-opacity="1" d="M 1888.179688 1207.140625 L 2140.21875 1210.898438 C 2156.230469 1211.140625 2169.410156 1198.351562 2169.648438 1182.339844 C 2169.890625 1166.328125 2157.101562 1153.160156 2141.089844 1152.921875 L 1889.039062 1149.148438 C 1873.039062 1148.921875 1859.859375 1161.699219 1859.621094 1177.710938 L 1859.621094 1177.71875 C 1859.378906 1193.730469 1872.171875 1206.898438 1888.179688 1207.140625 "/>
<path fill-rule="nonzero" fill="rgb(99.609375%, 75.389099%, 5.099487%)" fill-opacity="1" d="M 2129.878906 836.949219 C 2089.851562 836.949219 2047.589844 815.03125 2019.71875 775.511719 C 1977.539062 715.710938 1984.269531 638.25 2034.738281 602.511719 C 2051.859375 590.378906 2071.800781 584.621094 2092.328125 584.621094 C 2132.359375 584.621094 2174.621094 606.539062 2202.5 646.058594 C 2244.671875 705.859375 2237.949219 783.308594 2187.46875 819.058594 C 2170.359375 831.179688 2150.410156 836.949219 2129.878906 836.949219 "/>
<path fill-rule="nonzero" fill="rgb(100%, 98.4375%, 83.984375%)" fill-opacity="1" d="M 2108.378906 647.890625 C 2117.429688 660.71875 2131.570312 666.300781 2139.96875 660.351562 C 2148.371094 654.398438 2147.851562 639.179688 2138.800781 626.351562 C 2129.75 613.519531 2115.609375 607.949219 2107.210938 613.890625 C 2098.808594 619.839844 2099.328125 635.058594 2108.378906 647.890625 "/>
<path fill-rule="nonzero" fill="rgb(100%, 98.4375%, 83.984375%)" fill-opacity="1" d="M 2172.871094 693.261719 C 2175.191406 696.550781 2179.03125 697.828125 2181.441406 696.121094 C 2183.859375 694.410156 2183.941406 690.351562 2181.621094 687.058594 C 2179.300781 683.769531 2175.460938 682.488281 2173.039062 684.199219 C 2170.621094 685.910156 2170.539062 689.96875 2172.871094 693.261719 "/>
<path fill-rule="nonzero" fill="rgb(70.896912%, 70.896912%, 70.896912%)" fill-opacity="1" d="M 1888.988281 1149.148438 L 1992.589844 1150.699219 C 1984.628906 1160.390625 1976.171875 1179.730469 1996.71875 1208.761719 L 1888.128906 1207.140625 C 1872.140625 1206.898438 1859.390625 1193.730469 1859.621094 1177.71875 C 1859.859375 1161.699219 1873.011719 1148.910156 1888.988281 1149.148438 "/>
<path fill-rule="nonzero" fill="rgb(100%, 64.646912%, 0%)" fill-opacity="1" d="M 2007.351562 436.96875 L 2038.441406 437.441406 L 2040.148438 322.699219 L 2009.070312 322.238281 L 2007.351562 436.96875 "/>
<path fill-rule="nonzero" fill="rgb(100%, 64.646912%, 0%)" fill-opacity="1" d="M 1553.46875 892.910156 L 1553 924.070312 L 1667.5 925.78125 L 1667.96875 894.621094 L 1553.46875 892.910156 "/>
<path fill-rule="nonzero" fill="rgb(100%, 64.646912%, 0%)" fill-opacity="1" d="M 1615.140625 478.890625 L 1592.828125 500.589844 L 1672.578125 582.929688 L 1694.898438 561.230469 L 1615.140625 478.890625 "/>
<path fill-rule="nonzero" fill="rgb(100%, 64.646912%, 0%)" fill-opacity="1" d="M 2451.28125 910.261719 L 2450.390625 941.410156 L 2335.921875 938.148438 L 2336.808594 907.011719 L 2451.28125 910.261719 "/>
<path fill-rule="nonzero" fill="rgb(100%, 64.646912%, 0%)" fill-opacity="1" d="M 2451.660156 494.910156 L 2473.011719 517.558594 L 2389.761719 596.359375 L 2368.410156 573.710938 L 2451.660156 494.910156 "/>
<path fill-rule="nonzero" fill="rgb(11.376953%, 11.376953%, 10.594177%)" fill-opacity="1" d="M 700.699219 748.75 L 947.636719 823.171875 L 1372.730469 823.171875 L 1618.539062 767.921875 L 1159.621094 643.890625 L 700.699219 748.75 "/>
<path fill-rule="nonzero" fill="rgb(2.745056%, 2.745056%, 2.745056%)" fill-opacity="1" d="M 1372.730469 927.839844 C 1318.96875 942.449219 1244.429688 956.769531 1155.109375 956.210938 C 1070.558594 955.679688 999.691406 941.988281 947.636719 927.839844 C 947.636719 876.398438 947.636719 824.960938 947.636719 773.511719 C 985.667969 754.621094 1061.550781 723.230469 1161.871094 723.589844 C 1260.320312 723.929688 1334.828125 754.691406 1372.730469 773.511719 C 1372.730469 824.960938 1372.730469 876.398438 1372.730469 927.839844 "/>
<path fill-rule="nonzero" fill="rgb(14.892578%, 14.892578%, 14.501953%)" fill-opacity="1" d="M 1372.730469 934.800781 C 1318.96875 949.320312 1244.429688 963.550781 1155.109375 962.988281 C 1070.558594 962.460938 999.691406 948.859375 947.636719 934.800781 C 947.636719 883.679688 947.636719 832.570312 947.636719 781.449219 C 985.667969 762.679688 1061.550781 731.488281 1161.871094 731.839844 C 1260.320312 732.191406 1334.828125 762.75 1372.730469 781.449219 C 1372.730469 832.570312 1372.730469 883.679688 1372.730469 934.800781 "/>
<path fill-rule="nonzero" fill="rgb(98.4375%, 72.851562%, 7.446289%)" fill-opacity="1" d="M 960.175781 687.230469 C 942.882812 680.808594 924.519531 676.21875 906.0625 673.460938 C 887.597656 670.808594 868.695312 670 850.613281 672.859375 C 841.589844 674.269531 832.816406 676.539062 824.585938 679.789062 C 816.417969 683.160156 808.898438 687.539062 802.226562 692.75 C 795.414062 697.851562 790.023438 704.261719 785.113281 710.828125 C 782.859375 714.261719 780.484375 717.609375 778.71875 721.300781 C 777.796875 723.121094 776.722656 724.859375 775.921875 726.738281 L 773.554688 732.371094 C 771.832031 736.011719 770.8125 740.179688 769.4375 744.078125 L 765.574219 755.941406 L 762.621094 768 C 761.609375 772.011719 760.589844 776.011719 760.03125 780.089844 L 757.984375 792.25 C 757.382812 796.300781 757.15625 800.398438 756.722656 804.46875 L 756.136719 810.570312 C 755.980469 812.609375 756.007812 814.660156 755.933594 816.691406 C 755.863281 820.78125 755.65625 824.851562 755.6875 828.929688 C 755.949219 845.230469 757.84375 861.460938 761.359375 877.320312 C 762.152344 881.300781 763.21875 885.230469 764.332031 889.128906 C 765.324219 893.070312 766.710938 896.890625 767.945312 900.75 C 769.328125 904.550781 770.671875 908.390625 772.296875 912.050781 C 773.074219 913.910156 773.867188 915.75 774.734375 917.511719 C 775.160156 918.398438 775.566406 919.328125 776.015625 920.140625 C 776.4375 920.960938 776.917969 921.921875 777.238281 922.449219 C 780.699219 928.25 778.195312 935.441406 771.644531 938.5 C 765.09375 941.570312 756.976562 939.351562 753.515625 933.550781 C 753.386719 933.339844 753.265625 933.121094 753.152344 932.898438 L 753.066406 932.730469 C 752.371094 931.351562 751.957031 930.359375 751.449219 929.238281 C 750.933594 928.128906 750.539062 927.078125 750.09375 926 C 749.191406 923.859375 748.414062 921.71875 747.65625 919.589844 C 746.0625 915.328125 744.832031 911.050781 743.550781 906.761719 C 742.433594 902.460938 741.171875 898.179688 740.339844 893.851562 C 739.375 889.539062 738.480469 885.21875 737.863281 880.871094 C 735.070312 863.519531 734.085938 846.03125 734.835938 828.640625 C 735.054688 824.289062 735.523438 819.960938 735.859375 815.628906 C 736.066406 813.46875 736.171875 811.300781 736.464844 809.140625 L 737.457031 802.691406 C 738.171875 798.398438 738.679688 794.089844 739.566406 789.828125 L 742.476562 777.101562 C 743.328125 772.839844 744.640625 768.679688 745.945312 764.511719 L 749.792969 752.03125 L 754.558594 739.808594 C 756.253906 735.738281 757.5 731.691406 759.640625 727.609375 L 762.59375 721.519531 C 763.59375 719.5 764.894531 717.578125 766.03125 715.609375 C 768.222656 711.621094 771.089844 707.921875 773.839844 704.191406 C 779.777344 696.988281 786.316406 690.03125 794.371094 684.53125 C 802.277344 678.941406 811.066406 674.359375 820.363281 671.011719 C 829.71875 667.789062 839.449219 665.730469 849.230469 664.628906 C 868.839844 662.410156 888.457031 664.160156 907.304688 667.691406 C 926.179688 671.359375 944.429688 676.769531 961.851562 684.128906 C 962.816406 684.539062 963.226562 685.570312 962.765625 686.421875 C 962.316406 687.25 961.21875 687.621094 960.269531 687.269531 L 960.175781 687.230469 "/>
<path fill-rule="nonzero" fill="rgb(98.4375%, 72.851562%, 7.446289%)" fill-opacity="1" d="M 784.113281 945.230469 C 783.335938 932.648438 779.660156 925.480469 773.679688 923.648438 C 777.070312 919.378906 778.199219 913.800781 776.144531 908.480469 C 772.738281 899.660156 761.902344 894.960938 751.945312 897.980469 C 741.984375 900.988281 736.671875 910.589844 740.078125 919.410156 C 741.910156 924.148438 745.898438 927.679688 750.738281 929.488281 C 750.738281 929.488281 747.273438 939.109375 755.171875 946.648438 C 763.066406 954.179688 757.960938 980.738281 764.4375 982.449219 C 770.914062 984.171875 800.425781 976.699219 802.226562 969.539062 C 804.027344 962.371094 784.984375 959.308594 784.113281 945.230469 "/>
<path fill-rule="nonzero" fill="rgb(23.535156%, 23.535156%, 23.143005%)" fill-opacity="1" d="M 1036.351562 953.519531 C 1022.070312 951.320312 1008.5 948.851562 995.65625 946.199219 L 995.65625 760.960938 C 1007.898438 756.5 1021.519531 752.140625 1036.351562 748.171875 L 1036.351562 953.519531 "/>
<path fill-rule="nonzero" fill="rgb(23.535156%, 23.535156%, 23.143005%)" fill-opacity="1" d="M 1052.539062 955.859375 C 1049.570312 955.460938 1046.671875 955.039062 1043.75 954.621094 L 1043.75 746.230469 C 1046.621094 745.511719 1049.578125 744.839844 1052.539062 744.160156 L 1052.539062 955.859375 "/>
<path fill-rule="nonzero" fill="rgb(50.976562%, 69.334412%, 27.43988%)" fill-opacity="1" d="M 669 1615.890625 C 669 1615.890625 673.164062 1592.128906 669.136719 1577.039062 C 665.109375 1561.960938 688.886719 1551.429688 672.109375 1533.359375 C 672.109375 1533.359375 672.261719 1545.730469 658.554688 1541.390625 C 658.554688 1541.390625 668.410156 1512.421875 641.128906 1499.949219 C 641.128906 1499.949219 651.441406 1531.480469 637.1875 1528.351562 C 622.933594 1525.210938 638.789062 1504.101562 621.648438 1494.628906 C 604.507812 1485.160156 586.640625 1492.878906 599.925781 1515.789062 C 613.210938 1538.699219 610.863281 1543.761719 588.0625 1534.058594 C 588.0625 1534.058594 584.328125 1551.828125 598.375 1564.691406 C 612.425781 1577.558594 652.609375 1617.070312 669 1615.890625 "/>
<path fill-rule="nonzero" fill="rgb(49.414062%, 61.914062%, 24.31488%)" fill-opacity="1" d="M 663.324219 1621.671875 C 663.324219 1621.671875 665.164062 1584.109375 677.109375 1564.570312 C 689.058594 1545.039062 675.835938 1528.421875 667.746094 1523.308594 C 659.65625 1518.210938 682.007812 1460.71875 667.863281 1459.539062 C 653.722656 1458.371094 630.652344 1457.019531 640.164062 1494.960938 C 649.679688 1532.910156 656.492188 1528.480469 652.269531 1565.289062 C 648.042969 1602.101562 650.511719 1618.941406 663.324219 1621.671875 "/>
<path fill-rule="nonzero" fill="rgb(50.976562%, 69.334412%, 27.43988%)" fill-opacity="1" d="M 653.660156 1619.269531 C 653.660156 1619.269531 678.832031 1592.359375 687.960938 1547.308594 C 697.089844 1502.261719 732.53125 1532.328125 720.546875 1557.429688 C 708.5625 1582.519531 695.441406 1620.160156 653.660156 1619.269531 "/>
<path fill-rule="nonzero" fill="rgb(81.639099%, 82.03125%, 91.40625%)" fill-opacity="1" d="M 606.917969 1632.429688 L 720.675781 1632.429688 C 721.703125 1632.429688 722.539062 1631.589844 722.539062 1630.570312 L 722.539062 1605.269531 C 722.539062 1604.25 721.703125 1603.410156 720.675781 1603.410156 L 606.917969 1603.410156 C 605.890625 1603.410156 605.058594 1604.25 605.058594 1605.269531 L 605.058594 1630.570312 C 605.058594 1631.589844 605.890625 1632.429688 606.917969 1632.429688 "/>
<path fill-rule="nonzero" fill="rgb(81.639099%, 82.03125%, 91.40625%)" fill-opacity="1" d="M 694.996094 1701.839844 L 710.714844 1632.429688 L 616.878906 1632.429688 L 634.550781 1701.839844 L 694.996094 1701.839844 "/>
<path fill-rule="nonzero" fill="rgb(65.429688%, 65.429688%, 82.8125%)" fill-opacity="1" d="M 641.707031 1697.289062 C 650.417969 1699 693.726562 1702.128906 693.726562 1702.128906 L 634.550781 1702.128906 L 616.878906 1632.710938 L 690.492188 1632.710938 C 690.492188 1632.710938 624.285156 1636.699219 626.273438 1642.101562 C 628.265625 1647.511719 632.996094 1695.578125 641.707031 1697.289062 "/>
<path fill-rule="nonzero" fill="rgb(47.068787%, 52.146912%, 52.929688%)" fill-opacity="1" d="M 2002.46875 1645.679688 L 2008.710938 1620.351562 L 1898.488281 1593.171875 L 1892.238281 1618.5 L 2002.46875 1645.679688 "/>
<path fill-rule="nonzero" fill="rgb(51.367188%, 78.514099%, 82.8125%)" fill-opacity="1" d="M 1758.089844 1675.429688 C 1814.078125 1689.238281 1870.660156 1655.039062 1884.46875 1599.050781 C 1898.28125 1543.058594 1864.078125 1486.480469 1808.089844 1472.671875 C 1752.101562 1458.871094 1695.519531 1493.058594 1681.710938 1549.050781 C 1667.898438 1605.039062 1702.101562 1661.621094 1758.089844 1675.429688 "/>
<path fill-rule="nonzero" fill="rgb(17.259216%, 18.041992%, 22.75238%)" fill-opacity="1" d="M 1758.089844 1675.429688 C 1702.101562 1661.621094 1667.898438 1605.039062 1681.710938 1549.050781 C 1695.519531 1493.058594 1752.101562 1458.871094 1808.089844 1472.671875 C 1864.078125 1486.480469 1898.28125 1543.058594 1884.46875 1599.050781 C 1870.660156 1655.039062 1814.078125 1689.238281 1758.089844 1675.429688 Z M 1753.070312 1695.78125 C 1820.300781 1712.359375 1888.230469 1671.300781 1904.808594 1604.070312 C 1921.390625 1536.839844 1880.328125 1468.910156 1813.109375 1452.328125 C 1745.878906 1435.75 1677.941406 1476.808594 1661.371094 1544.03125 C 1644.789062 1611.261719 1685.839844 1679.199219 1753.070312 1695.78125 "/>
<path fill-rule="nonzero" fill="rgb(17.259216%, 18.041992%, 22.75238%)" fill-opacity="1" d="M 1959.328125 1629.800781 L 1963.140625 1614.359375 C 1965.621094 1604.289062 1977.550781 1598.570312 1989.789062 1601.578125 L 2172.949219 1646.75 C 2185.191406 1649.769531 2193.089844 1660.378906 2190.609375 1670.460938 L 2186.800781 1685.890625 C 2184.320312 1695.960938 2172.378906 1701.691406 2160.148438 1698.671875 L 1976.980469 1653.5 C 1964.75 1650.480469 1956.851562 1639.871094 1959.328125 1629.800781 "/>
<path fill-rule="nonzero" fill="rgb(100%, 100%, 100%)" fill-opacity="1" d="M 1725.839844 1611.960938 C 1740.851562 1621.980469 1761.140625 1617.949219 1771.160156 1602.941406 C 1781.191406 1587.941406 1777.148438 1567.640625 1762.148438 1557.621094 C 1747.140625 1547.589844 1726.851562 1551.628906 1716.828125 1566.640625 C 1706.800781 1581.640625 1710.839844 1601.929688 1725.839844 1611.960938 "/>
<path fill-rule="nonzero" fill="rgb(100%, 100%, 100%)" fill-opacity="1" d="M 1770.941406 1652.039062 C 1776.269531 1655.601562 1783.480469 1654.171875 1787.039062 1648.828125 C 1790.601562 1643.5 1789.171875 1636.289062 1783.839844 1632.730469 C 1778.5 1629.171875 1771.289062 1630.601562 1767.730469 1635.929688 C 1764.171875 1641.261719 1765.601562 1648.480469 1770.941406 1652.039062 "/>
</svg>
